<?xml version="1.0" encoding="utf-8" standalone="no"?>
<!DOCTYPE svg PUBLIC "-//W3C//DTD SVG 1.1//EN"
  "http://www.w3.org/Graphics/SVG/1.1/DTD/svg11.dtd">
<!-- Created with matplotlib (http://matplotlib.org/) -->
<svg height="318pt" version="1.1" viewBox="0 0 1152 318" width="1152pt" xmlns="http://www.w3.org/2000/svg" xmlns:xlink="http://www.w3.org/1999/xlink">
 <defs>
  <style type="text/css">
*{stroke-linecap:butt;stroke-linejoin:round;stroke-miterlimit:100000;}
  </style>
 </defs>
 <g id="figure_1">
  <g id="patch_1">
   <path d="M 0 318.34175 
L 1152.88 318.34175 
L 1152.88 0 
L 0 0 
z
" style="fill:#ffffff;"/>
  </g>
  <g id="axes_1">
   <g id="patch_2">
    <path d="M 29.68 311.14175 
L 1145.68 311.14175 
L 1145.68 23.14175 
L 29.68 23.14175 
z
" style="fill:#ffffff;"/>
   </g>
   <g id="PathCollection_1">
    <defs>
     <path d="M 0 7.071068 
C 1.875269 7.071068 3.673985 6.326016 5 5 
C 6.326016 3.673985 7.071068 1.875269 7.071068 0 
C 7.071068 -1.875269 6.326016 -3.673985 5 -5 
C 3.673985 -6.326016 1.875269 -7.071068 0 -7.071068 
C -1.875269 -7.071068 -3.673985 -6.326016 -5 -5 
C -6.326016 -3.673985 -7.071068 -1.875269 -7.071068 0 
C -7.071068 1.875269 -6.326016 3.673985 -5 5 
C -3.673985 6.326016 -1.875269 7.071068 0 7.071068 
z
" id="m690824007d" style="stroke:#000000;"/>
    </defs>
    <g clip-path="url(#p2a61fe4a53)">
     <use style="stroke:#000000;" x="212.603308271" xlink:href="#m690824007d" y="42.5823360027"/>
    </g>
   </g>
   <g id="PathCollection_2">
    <g clip-path="url(#p2a61fe4a53)">
     <use style="stroke:#000000;" x="88.4168421053" xlink:href="#m690824007d" y="291.609581137"/>
    </g>
   </g>
   <g id="PathCollection_3">
    <g clip-path="url(#p2a61fe4a53)">
     <use style="stroke:#000000;" x="269.661954887" xlink:href="#m690824007d" y="84.4523467081"/>
    </g>
   </g>
   <g id="PathCollection_4">
    <g clip-path="url(#p2a61fe4a53)">
     <use style="stroke:#000000;" x="247.845413534" xlink:href="#m690824007d" y="128.480877773"/>
    </g>
   </g>
   <g id="PathCollection_5">
    <g clip-path="url(#p2a61fe4a53)">
     <use style="stroke:#000000;" x="313.295037594" xlink:href="#m690824007d" y="167.208444985"/>
    </g>
   </g>
   <g id="PathCollection_6">
    <g clip-path="url(#p2a61fe4a53)">
     <use style="stroke:#000000;" x="407.273984962" xlink:href="#m690824007d" y="42.6522530316"/>
    </g>
   </g>
   <g id="PathCollection_7">
    <g clip-path="url(#p2a61fe4a53)">
     <use style="stroke:#000000;" x="462.65443609" xlink:href="#m690824007d" y="84.4523467081"/>
    </g>
   </g>
   <g id="PathCollection_8">
    <g clip-path="url(#p2a61fe4a53)">
     <use style="stroke:#000000;" x="489.50556391" xlink:href="#m690824007d" y="163.911168457"/>
    </g>
   </g>
   <g id="PathCollection_9">
    <g clip-path="url(#p2a61fe4a53)">
     <use style="stroke:#000000;" x="440.837894737" xlink:href="#m690824007d" y="128.480877773"/>
    </g>
   </g>
   <g id="PathCollection_10">
    <g clip-path="url(#p2a61fe4a53)">
     <use style="stroke:#000000;" x="375.388270677" xlink:href="#m690824007d" y="291.4810671"/>
    </g>
   </g>
   <g id="PathCollection_11">
    <g clip-path="url(#p2a61fe4a53)">
     <use style="stroke:#000000;" x="642.221353383" xlink:href="#m690824007d" y="42.5823360027"/>
    </g>
   </g>
   <g id="PathCollection_12">
    <g clip-path="url(#p2a61fe4a53)">
     <use style="stroke:#000000;" x="585.162706767" xlink:href="#m690824007d" y="84.4523467081"/>
    </g>
   </g>
   <g id="PathCollection_13">
    <g clip-path="url(#p2a61fe4a53)">
     <use style="stroke:#000000;" x="541.52962406" xlink:href="#m690824007d" y="167.208444985"/>
    </g>
   </g>
   <g id="PathCollection_14">
    <g clip-path="url(#p2a61fe4a53)">
     <use style="stroke:#000000;" x="606.97924812" xlink:href="#m690824007d" y="128.480877773"/>
    </g>
   </g>
   <g id="PathCollection_15">
    <g clip-path="url(#p2a61fe4a53)">
     <use style="stroke:#000000;" x="766.407819549" xlink:href="#m690824007d" y="291.609581137"/>
    </g>
   </g>
   <g id="PathCollection_16">
    <g clip-path="url(#p2a61fe4a53)">
     <use style="stroke:#000000;" x="1026.5281203" xlink:href="#m690824007d" y="42.6562932148"/>
    </g>
   </g>
   <g id="PathCollection_17">
    <g clip-path="url(#p2a61fe4a53)">
     <use style="stroke:#000000;" x="966.113082707" xlink:href="#m690824007d" y="84.5447889108"/>
    </g>
   </g>
   <g id="PathCollection_18">
    <g clip-path="url(#p2a61fe4a53)">
     <use style="stroke:#000000;" x="902.341654135" xlink:href="#m690824007d" y="291.688972272"/>
    </g>
   </g>
   <g id="PathCollection_19">
    <g clip-path="url(#p2a61fe4a53)">
     <use style="stroke:#000000;" x="986.251428571" xlink:href="#m690824007d" y="128.47595808"/>
    </g>
   </g>
   <g id="PathCollection_20">
    <g clip-path="url(#p2a61fe4a53)">
     <use style="stroke:#000000;" x="1127.21984962" xlink:href="#m690824007d" y="167.186771998"/>
    </g>
   </g>
   <g id="line2d_1">
    <path clip-path="url(#p2a61fe4a53)" d="M 88.416842 291.609581 
L 90.95126 281.548922 
L 93.485677 271.695699 
L 96.020095 262.049912 
L 98.554513 252.611562 
L 101.08893 243.380648 
L 103.623348 234.35717 
L 106.157766 225.541128 
L 108.692184 216.932523 
L 111.226601 208.531354 
L 113.761019 200.337621 
L 116.295437 192.351325 
L 118.829854 184.572465 
L 121.364272 177.001041 
L 123.89869 169.637053 
L 126.433107 162.480502 
L 128.967525 155.531386 
L 131.501943 148.789708 
L 134.03636 142.255465 
L 136.570778 135.928659 
L 139.105196 129.809289 
L 141.639613 123.897355 
L 144.174031 118.192857 
L 146.708449 112.695796 
L 149.242866 107.406171 
L 151.777284 102.323982 
L 154.311702 97.44923 
L 156.846119 92.781914 
L 159.380537 88.322034 
L 161.914955 84.069591 
L 164.449372 80.024583 
L 166.98379 76.187012 
L 169.518208 72.556877 
L 172.052625 69.134179 
L 174.587043 65.918917 
L 177.121461 62.911091 
L 179.655878 60.110701 
L 182.190296 57.517748 
L 184.724714 55.13223 
L 187.259132 52.95415 
L 189.793549 50.983505 
L 192.327967 49.220297 
L 194.862385 47.664525 
L 197.396802 46.316189 
L 199.93122 45.175289 
L 202.465638 44.241826 
L 205.000055 43.515799 
L 207.534473 42.997209 
L 210.068891 42.686054 
L 212.603308 42.582336 
" style="fill:none;stroke:#000000;stroke-linecap:square;stroke-width:3.0;"/>
   </g>
   <g id="line2d_2">
    <path clip-path="url(#p2a61fe4a53)" d="M 269.661955 84.452347 
L 268.497493 82.760805 
L 267.333031 81.104141 
L 266.168568 79.482354 
L 265.004106 77.895444 
L 263.839644 76.343411 
L 262.675182 74.826255 
L 261.51072 73.343977 
L 260.346257 71.896575 
L 259.181795 70.484051 
L 258.017333 69.106404 
L 256.852871 67.763634 
L 255.688409 66.455741 
L 254.523947 65.182725 
L 253.359484 63.944586 
L 252.195022 62.741325 
L 251.03056 61.572941 
L 249.866098 60.439433 
L 248.701636 59.340803 
L 247.537174 58.277051 
L 246.372711 57.248175 
L 245.208249 56.254176 
L 244.043787 55.295055 
L 242.879325 54.37081 
L 241.714863 53.481443 
L 240.5504 52.626953 
L 239.385938 51.80734 
L 238.221476 51.022605 
L 237.057014 50.272746 
L 235.892552 49.557765 
L 234.72809 48.87766 
L 233.563627 48.232433 
L 232.399165 47.622083 
L 231.234703 47.04661 
L 230.070241 46.506015 
L 228.905779 46.000296 
L 227.741317 45.529455 
L 226.576854 45.09349 
L 225.412392 44.692403 
L 224.24793 44.326193 
L 223.083468 43.99486 
L 221.919006 43.698405 
L 220.754544 43.436826 
L 219.590081 43.210125 
L 218.425619 43.0183 
L 217.261157 42.861353 
L 216.096695 42.739283 
L 214.932233 42.65209 
L 213.76777 42.599775 
L 212.603308 42.582336 
" style="fill:none;stroke:#000000;stroke-linecap:square;stroke-width:3.0;"/>
   </g>
   <g id="line2d_3">
    <path clip-path="url(#p2a61fe4a53)" d="M 247.845414 128.480878 
L 248.290649 126.702132 
L 248.735885 124.960062 
L 249.18112 123.254667 
L 249.626356 121.585947 
L 250.071591 119.953903 
L 250.516827 118.358533 
L 250.962062 116.799839 
L 251.407298 115.27782 
L 251.852533 113.792476 
L 252.297769 112.343807 
L 252.743004 110.931813 
L 253.18824 109.556495 
L 253.633476 108.217851 
L 254.078711 106.915883 
L 254.523947 105.65059 
L 254.969182 104.421972 
L 255.414418 103.230029 
L 255.859653 102.074762 
L 256.304889 100.956169 
L 256.750124 99.874252 
L 257.19536 98.82901 
L 257.640595 97.820443 
L 258.085831 96.848551 
L 258.531066 95.913335 
L 258.976302 95.014793 
L 259.421538 94.152927 
L 259.866773 93.327736 
L 260.312009 92.53922 
L 260.757244 91.787379 
L 261.20248 91.072213 
L 261.647715 90.393723 
L 262.092951 89.751908 
L 262.538186 89.146767 
L 262.983422 88.578302 
L 263.428657 88.046513 
L 263.873893 87.551398 
L 264.319128 87.092958 
L 264.764364 86.671194 
L 265.2096 86.286105 
L 265.654835 85.937691 
L 266.100071 85.625952 
L 266.545306 85.350888 
L 266.990542 85.1125 
L 267.435777 84.910786 
L 267.881013 84.745748 
L 268.326248 84.617385 
L 268.771484 84.525697 
L 269.216719 84.470684 
L 269.661955 84.452347 
" style="fill:none;stroke:#000000;stroke-linecap:square;stroke-width:3.0;"/>
   </g>
   <g id="line2d_4">
    <path clip-path="url(#p2a61fe4a53)" d="M 313.295038 167.208445 
L 312.404567 163.865112 
L 311.514095 160.590715 
L 310.623624 157.385251 
L 309.733153 154.248723 
L 308.842682 151.181129 
L 307.952211 148.18247 
L 307.06174 145.252745 
L 306.171269 142.391956 
L 305.280798 139.600101 
L 304.390327 136.87718 
L 303.499856 134.223195 
L 302.609385 131.638144 
L 301.718914 129.122027 
L 300.828443 126.674846 
L 299.937971 124.296599 
L 299.0475 121.987287 
L 298.157029 119.746909 
L 297.266558 117.575466 
L 296.376087 115.472958 
L 295.485616 113.439385 
L 294.595145 111.474746 
L 293.704674 109.579042 
L 292.814203 107.752273 
L 291.923732 105.994438 
L 291.033261 104.305538 
L 290.14279 102.685573 
L 289.252319 101.134542 
L 288.361847 99.652446 
L 287.471376 98.239285 
L 286.580905 96.895059 
L 285.690434 95.619767 
L 284.799963 94.41341 
L 283.909492 93.275987 
L 283.019021 92.2075 
L 282.12855 91.207947 
L 281.238079 90.277328 
L 280.347608 89.415645 
L 279.457137 88.622896 
L 278.566666 87.899081 
L 277.676195 87.244202 
L 276.785723 86.658257 
L 275.895252 86.141247 
L 275.004781 85.693171 
L 274.11431 85.31403 
L 273.223839 85.003824 
L 272.333368 84.762553 
L 271.442897 84.590216 
L 270.552426 84.486814 
L 269.661955 84.452347 
" style="fill:none;stroke:#000000;stroke-linecap:square;stroke-width:3.0;"/>
   </g>
   <g id="line2d_5">
    <path clip-path="url(#p2a61fe4a53)" d="M 46.461955 42.685388 
L 48.14015 66.699294 
L 49.818346 89.133198 
L 51.496541 110.041799 
L 53.174737 129.473033 
L 54.852932 147.491724 
L 56.531128 164.174863 
L 58.209323 179.583751 
L 59.887519 193.771994 
L 61.565714 206.778113 
L 63.24391 218.636288 
L 64.922105 229.406708 
L 66.600301 239.153342 
L 68.278496 247.924497 
L 69.956692 255.766957 
L 71.634887 262.715446 
L 73.313083 268.801532 
L 74.991278 274.069786 
L 76.669474 278.571876 
L 78.347669 282.33978 
L 80.025865 285.416588 
L 81.70406 287.833255 
L 83.382256 289.62645 
L 85.060451 290.831457 
L 86.738647 291.481067 
L 88.416842 291.609581 
L 90.095038 291.25298 
L 91.773233 290.461861 
L 93.451429 289.293018 
L 95.129624 287.774442 
L 96.80782 285.949897 
L 98.486015 283.844701 
L 100.164211 281.473781 
L 101.842406 278.856045 
L 105.198797 272.90077 
L 108.555188 266.19114 
L 111.911579 258.904263 
L 115.26797 251.10912 
L 120.302556 238.650597 
L 125.337143 225.544916 
L 132.049925 207.341514 
L 138.762707 188.476229 
L 148.83188 159.447227 
L 158.901053 130.323303 
L 163.935639 116.212994 
L 168.970226 102.69681 
L 172.326617 94.203606 
L 175.683008 86.196592 
L 179.039398 78.692995 
L 182.395789 71.816149 
L 185.75218 65.623787 
L 189.108571 60.136977 
L 192.464962 55.37932 
L 194.143158 53.272038 
L 195.821353 51.344465 
L 197.499549 49.616861 
L 199.177744 48.093497 
L 200.85594 46.771274 
L 202.534135 45.640957 
L 204.212331 44.695072 
L 205.890526 43.923269 
L 207.568722 43.330726 
L 209.246917 42.933547 
L 210.925113 42.685818 
L 212.603308 42.582336 
L 214.281504 42.652253 
L 215.959699 43.103021 
L 217.637895 44.272333 
L 219.31609 46.111518 
L 220.994286 48.579253 
L 222.672481 51.634443 
L 224.350677 55.238301 
L 226.028872 59.354715 
L 227.707068 63.944285 
L 229.385263 68.964167 
L 232.741654 80.088786 
L 236.098045 92.370068 
L 239.454436 105.506761 
L 241.132632 112.285125 
L 242.810827 118.5748 
L 244.489023 123.770055 
L 246.167218 127.272595 
L 247.845414 128.480878 
L 249.523609 126.784807 
L 251.201805 122.92172 
L 252.88 117.624636 
L 256.236391 105.695718 
L 257.914586 100.558915 
L 259.592782 96.208963 
L 261.270977 92.622205 
L 262.949173 89.748287 
L 264.627368 87.531141 
L 266.305564 85.931531 
L 267.983759 84.910175 
L 269.661955 84.452347 
L 271.34015 84.550105 
L 273.018346 85.1861 
L 274.696541 86.31405 
L 276.374737 87.885666 
L 278.052932 89.845493 
L 279.731128 92.149012 
L 281.409323 94.781132 
L 283.087519 97.728778 
L 284.765714 100.975453 
L 288.122105 108.202909 
L 291.478496 116.130004 
L 296.513083 128.719332 
L 303.225865 145.592432 
L 306.582256 153.513375 
L 309.938647 160.592902 
L 313.295038 167.208445 
L 313.295038 167.208445 
" style="fill:none;stroke:#0000ff;stroke-linecap:square;stroke-width:2.0;"/>
   </g>
   <g id="line2d_6">
    <path clip-path="url(#p2a61fe4a53)" d="M 462.654436 84.452347 
L 461.524223 82.76363 
L 460.39401 81.109732 
L 459.263796 79.490653 
L 458.133583 77.906393 
L 457.00337 76.356952 
L 455.873156 74.842329 
L 454.742943 73.362526 
L 453.61273 71.917541 
L 452.482516 70.507376 
L 451.352303 69.132029 
L 450.22209 67.791501 
L 449.091877 66.485792 
L 447.961663 65.214903 
L 446.83145 63.978831 
L 445.701237 62.777579 
L 444.571023 61.611146 
L 443.44081 60.479532 
L 442.310597 59.382736 
L 441.180384 58.32076 
L 440.05017 57.293602 
L 438.919957 56.301263 
L 437.789744 55.343743 
L 436.65953 54.421042 
L 435.529317 53.53316 
L 434.399104 52.680097 
L 433.268891 51.861853 
L 432.138677 51.078428 
L 431.008464 50.329821 
L 429.878251 49.616034 
L 428.748037 48.937065 
L 427.617824 48.292915 
L 426.487611 47.683585 
L 425.357398 47.109073 
L 424.227184 46.56938 
L 423.096971 46.064506 
L 421.966758 45.59445 
L 420.836544 45.159214 
L 419.706331 44.758797 
L 418.576118 44.393198 
L 417.445905 44.062419 
L 416.315691 43.766458 
L 415.185478 43.505316 
L 414.055265 43.278993 
L 412.925051 43.087489 
L 411.794838 42.930804 
L 410.664625 42.808938 
L 409.534412 42.721891 
L 408.404198 42.669662 
L 407.273985 42.652253 
" style="fill:none;stroke:#000000;stroke-linecap:square;stroke-width:3.0;"/>
   </g>
   <g id="line2d_7">
    <path clip-path="url(#p2a61fe4a53)" d="M 489.505564 163.911168 
L 488.957582 160.701045 
L 488.4096 157.55711 
L 487.861617 154.479363 
L 487.313635 151.467804 
L 486.765653 148.522434 
L 486.217671 145.643251 
L 485.669689 142.830257 
L 485.121706 140.08345 
L 484.573724 137.402832 
L 484.025742 134.788402 
L 483.47776 132.24016 
L 482.929778 129.758106 
L 482.381795 127.34224 
L 481.833813 124.992562 
L 481.285831 122.709072 
L 480.737849 120.491771 
L 480.189867 118.340657 
L 479.641884 116.255732 
L 479.093902 114.236995 
L 478.54592 112.284445 
L 477.997938 110.398084 
L 477.449956 108.577911 
L 476.901973 106.823927 
L 476.353991 105.13613 
L 475.806009 103.514521 
L 475.258027 101.959101 
L 474.710044 100.469868 
L 474.162062 99.046824 
L 473.61408 97.689968 
L 473.066098 96.3993 
L 472.518116 95.17482 
L 471.970133 94.016528 
L 471.422151 92.924424 
L 470.874169 91.898509 
L 470.326187 90.938781 
L 469.778205 90.045242 
L 469.230222 89.21789 
L 468.68224 88.456727 
L 468.134258 87.761752 
L 467.586276 87.132965 
L 467.038294 86.570366 
L 466.490311 86.073955 
L 465.942329 85.643733 
L 465.394347 85.279698 
L 464.846365 84.981852 
L 464.298383 84.750193 
L 463.7504 84.584723 
L 463.202418 84.485441 
L 462.654436 84.452347 
" style="fill:none;stroke:#000000;stroke-linecap:square;stroke-width:3.0;"/>
   </g>
   <g id="line2d_8">
    <path clip-path="url(#p2a61fe4a53)" d="M 440.837895 128.480878 
L 441.28313 126.702132 
L 441.728366 124.960062 
L 442.173601 123.254667 
L 442.618837 121.585947 
L 443.064072 119.953903 
L 443.509308 118.358533 
L 443.954544 116.799839 
L 444.399779 115.27782 
L 444.845015 113.792476 
L 445.29025 112.343807 
L 445.735486 110.931813 
L 446.180721 109.556495 
L 446.625957 108.217851 
L 447.071192 106.915883 
L 447.516428 105.65059 
L 447.961663 104.421972 
L 448.406899 103.230029 
L 448.852134 102.074762 
L 449.29737 100.956169 
L 449.742605 99.874252 
L 450.187841 98.82901 
L 450.633077 97.820443 
L 451.078312 96.848551 
L 451.523548 95.913335 
L 451.968783 95.014793 
L 452.414019 94.152927 
L 452.859254 93.327736 
L 453.30449 92.53922 
L 453.749725 91.787379 
L 454.194961 91.072213 
L 454.640196 90.393723 
L 455.085432 89.751908 
L 455.530667 89.146767 
L 455.975903 88.578302 
L 456.421139 88.046513 
L 456.866374 87.551398 
L 457.31161 87.092958 
L 457.756845 86.671194 
L 458.202081 86.286105 
L 458.647316 85.937691 
L 459.092552 85.625952 
L 459.537787 85.350888 
L 459.983023 85.1125 
L 460.428258 84.910786 
L 460.873494 84.745748 
L 461.318729 84.617385 
L 461.763965 84.525697 
L 462.209201 84.470684 
L 462.654436 84.452347 
" style="fill:none;stroke:#000000;stroke-linecap:square;stroke-width:3.0;"/>
   </g>
   <g id="line2d_9">
    <path clip-path="url(#p2a61fe4a53)" d="M 375.388271 291.481067 
L 376.039 281.428424 
L 376.689728 271.583053 
L 377.340457 261.944952 
L 377.991186 252.514122 
L 378.641915 243.290564 
L 379.292644 234.274276 
L 379.943373 225.465259 
L 380.594102 216.863514 
L 381.24483 208.469039 
L 381.895559 200.281835 
L 382.546288 192.301902 
L 383.197017 184.52924 
L 383.847746 176.963849 
L 384.498475 169.60573 
L 385.149204 162.454881 
L 385.799932 155.511303 
L 386.450661 148.774996 
L 387.10139 142.24596 
L 387.752119 135.924195 
L 388.402848 129.809701 
L 389.053577 123.902478 
L 389.704306 118.202526 
L 390.355035 112.709845 
L 391.005763 107.424435 
L 391.656492 102.346296 
L 392.307221 97.475428 
L 392.95795 92.811831 
L 393.608679 88.355505 
L 394.259408 84.106449 
L 394.910137 80.064665 
L 395.560865 76.230152 
L 396.211594 72.60291 
L 396.862323 69.182939 
L 397.513052 65.970239 
L 398.163781 62.964809 
L 398.81451 60.166651 
L 399.465239 57.575764 
L 400.115967 55.192147 
L 400.766696 53.015802 
L 401.417425 51.046728 
L 402.068154 49.284924 
L 402.718883 47.730392 
L 403.369612 46.383131 
L 404.020341 45.24314 
L 404.67107 44.310421 
L 405.321798 43.584972 
L 405.972527 43.066795 
L 406.623256 42.755889 
L 407.273985 42.652253 
" style="fill:none;stroke:#000000;stroke-linecap:square;stroke-width:3.0;"/>
   </g>
   <g id="line2d_10">
    <path clip-path="url(#p2a61fe4a53)" d="M 365.319098 42.685388 
L 366.997293 129.473033 
L 368.675489 193.771994 
L 370.353684 239.153342 
L 372.03188 268.801532 
L 373.710075 285.416588 
L 375.388271 291.481067 
L 377.066466 289.293018 
L 378.744662 281.473781 
L 380.422857 269.62664 
L 382.101053 255.064746 
L 383.779248 238.650597 
L 385.457444 221.063054 
L 387.135639 202.684087 
L 388.813835 183.682481 
L 390.49203 164.339554 
L 392.170226 144.803895 
L 393.848421 125.560954 
L 395.526617 107.115113 
L 397.204812 90.142691 
L 398.883008 75.173235 
L 400.561203 62.78926 
L 402.239398 53.272038 
L 403.917594 46.771274 
L 405.595789 43.330726 
L 407.273985 42.652253 
L 408.95218 43.103021 
L 410.630376 44.272333 
L 412.308571 46.111518 
L 413.986767 48.579253 
L 415.664962 51.634443 
L 417.343158 55.238301 
L 419.021353 59.354715 
L 420.699549 63.944285 
L 422.377744 68.964167 
L 424.05594 74.360626 
L 425.734135 80.088786 
L 427.412331 86.105033 
L 429.090526 92.370068 
L 430.768722 98.853616 
L 432.446917 105.506761 
L 434.125113 112.285125 
L 435.803308 118.5748 
L 437.481504 123.770055 
L 439.159699 127.272595 
L 440.837895 128.480878 
L 442.51609 126.784807 
L 444.194286 122.92172 
L 445.872481 117.624636 
L 447.550677 111.632537 
L 449.228872 105.695718 
L 450.907068 100.558915 
L 452.585263 96.208963 
L 454.263459 92.622205 
L 455.941654 89.748287 
L 457.61985 87.531141 
L 459.298045 85.931531 
L 460.976241 84.910175 
L 462.654436 84.452347 
L 464.332632 84.550105 
L 466.010827 85.1861 
L 467.689023 86.31405 
L 469.367218 87.885666 
L 471.045414 89.845493 
L 472.723609 92.149012 
L 474.401805 94.781132 
L 476.08 100.975453 
L 477.758195 108.202909 
L 479.436391 116.130004 
L 481.114586 124.475679 
L 482.792782 132.970796 
L 484.470977 141.42929 
L 486.149173 149.638955 
L 487.827368 157.163833 
L 489.505564 163.911168 
" style="fill:none;stroke:#008000;stroke-linecap:square;stroke-width:2.0;"/>
   </g>
   <g id="line2d_11">
    <path clip-path="url(#p2a61fe4a53)" d="M 585.162707 84.452347 
L 586.327169 82.760805 
L 587.491631 81.104141 
L 588.656093 79.482354 
L 589.820555 77.895444 
L 590.985018 76.343411 
L 592.14948 74.826255 
L 593.313942 73.343977 
L 594.478404 71.896575 
L 595.642866 70.484051 
L 596.807329 69.106404 
L 597.971791 67.763634 
L 599.136253 66.455741 
L 600.300715 65.182725 
L 601.465177 63.944586 
L 602.629639 62.741325 
L 603.794102 61.572941 
L 604.958564 60.439433 
L 606.123026 59.340803 
L 607.287488 58.277051 
L 608.45195 57.248175 
L 609.616412 56.254176 
L 610.780875 55.295055 
L 611.945337 54.37081 
L 613.109799 53.481443 
L 614.274261 52.626953 
L 615.438723 51.80734 
L 616.603186 51.022605 
L 617.767648 50.272746 
L 618.93211 49.557765 
L 620.096572 48.87766 
L 621.261034 48.232433 
L 622.425496 47.622083 
L 623.589959 47.04661 
L 624.754421 46.506015 
L 625.918883 46.000296 
L 627.083345 45.529455 
L 628.247807 45.09349 
L 629.412269 44.692403 
L 630.576732 44.326193 
L 631.741194 43.99486 
L 632.905656 43.698405 
L 634.070118 43.436826 
L 635.23458 43.210125 
L 636.399043 43.0183 
L 637.563505 42.861353 
L 638.727967 42.739283 
L 639.892429 42.65209 
L 641.056891 42.599775 
L 642.221353 42.582336 
" style="fill:none;stroke:#000000;stroke-linecap:square;stroke-width:3.0;"/>
   </g>
   <g id="line2d_12">
    <path clip-path="url(#p2a61fe4a53)" d="M 541.529624 167.208445 
L 542.420095 163.865112 
L 543.310566 160.590715 
L 544.201037 157.385251 
L 545.091508 154.248723 
L 545.981979 151.181129 
L 546.872451 148.18247 
L 547.762922 145.252745 
L 548.653393 142.391956 
L 549.543864 139.600101 
L 550.434335 136.87718 
L 551.324806 134.223195 
L 552.215277 131.638144 
L 553.105748 129.122027 
L 553.996219 126.674846 
L 554.88669 124.296599 
L 555.777161 121.987287 
L 556.667632 119.746909 
L 557.558103 117.575466 
L 558.448574 115.472958 
L 559.339046 113.439385 
L 560.229517 111.474746 
L 561.119988 109.579042 
L 562.010459 107.752273 
L 562.90093 105.994438 
L 563.791401 104.305538 
L 564.681872 102.685573 
L 565.572343 101.134542 
L 566.462814 99.652446 
L 567.353285 98.239285 
L 568.243756 96.895059 
L 569.134227 95.619767 
L 570.024698 94.41341 
L 570.91517 93.275987 
L 571.805641 92.2075 
L 572.696112 91.207947 
L 573.586583 90.277328 
L 574.477054 89.415645 
L 575.367525 88.622896 
L 576.257996 87.899081 
L 577.148467 87.244202 
L 578.038938 86.658257 
L 578.929409 86.141247 
L 579.81988 85.693171 
L 580.710351 85.31403 
L 581.600822 85.003824 
L 582.491294 84.762553 
L 583.381765 84.590216 
L 584.272236 84.486814 
L 585.162707 84.452347 
" style="fill:none;stroke:#000000;stroke-linecap:square;stroke-width:3.0;"/>
   </g>
   <g id="line2d_13">
    <path clip-path="url(#p2a61fe4a53)" d="M 606.979248 128.480878 
L 606.534013 126.702132 
L 606.088777 124.960062 
L 605.643542 123.254667 
L 605.198306 121.585947 
L 604.75307 119.953903 
L 604.307835 118.358533 
L 603.862599 116.799839 
L 603.417364 115.27782 
L 602.972128 113.792476 
L 602.526893 112.343807 
L 602.081657 110.931813 
L 601.636422 109.556495 
L 601.191186 108.217851 
L 600.745951 106.915883 
L 600.300715 105.65059 
L 599.85548 104.421972 
L 599.410244 103.230029 
L 598.965008 102.074762 
L 598.519773 100.956169 
L 598.074537 99.874252 
L 597.629302 98.82901 
L 597.184066 97.820443 
L 596.738831 96.848551 
L 596.293595 95.913335 
L 595.84836 95.014793 
L 595.403124 94.152927 
L 594.957889 93.327736 
L 594.512653 92.53922 
L 594.067418 91.787379 
L 593.622182 91.072213 
L 593.176946 90.393723 
L 592.731711 89.751908 
L 592.286475 89.146767 
L 591.84124 88.578302 
L 591.396004 88.046513 
L 590.950769 87.551398 
L 590.505533 87.092958 
L 590.060298 86.671194 
L 589.615062 86.286105 
L 589.169827 85.937691 
L 588.724591 85.625952 
L 588.279356 85.350888 
L 587.83412 85.1125 
L 587.388884 84.910786 
L 586.943649 84.745748 
L 586.498413 84.617385 
L 586.053178 84.525697 
L 585.607942 84.470684 
L 585.162707 84.452347 
" style="fill:none;stroke:#000000;stroke-linecap:square;stroke-width:3.0;"/>
   </g>
   <g id="line2d_14">
    <path clip-path="url(#p2a61fe4a53)" d="M 766.40782 291.609581 
L 763.873402 281.548922 
L 761.338984 271.695699 
L 758.804567 262.049912 
L 756.270149 252.611562 
L 753.735731 243.380648 
L 751.201313 234.35717 
L 748.666896 225.541128 
L 746.132478 216.932523 
L 743.59806 208.531354 
L 741.063643 200.337621 
L 738.529225 192.351325 
L 735.994807 184.572465 
L 733.46039 177.001041 
L 730.925972 169.637053 
L 728.391554 162.480502 
L 725.857137 155.531386 
L 723.322719 148.789708 
L 720.788301 142.255465 
L 718.253884 135.928659 
L 715.719466 129.809289 
L 713.185048 123.897355 
L 710.650631 118.192857 
L 708.116213 112.695796 
L 705.581795 107.406171 
L 703.047378 102.323982 
L 700.51296 97.44923 
L 697.978542 92.781914 
L 695.444125 88.322034 
L 692.909707 84.069591 
L 690.375289 80.024583 
L 687.840872 76.187012 
L 685.306454 72.556877 
L 682.772036 69.134179 
L 680.237619 65.918917 
L 677.703201 62.911091 
L 675.168783 60.110701 
L 672.634366 57.517748 
L 670.099948 55.13223 
L 667.56553 52.95415 
L 665.031112 50.983505 
L 662.496695 49.220297 
L 659.962277 47.664525 
L 657.427859 46.316189 
L 654.893442 45.175289 
L 652.359024 44.241826 
L 649.824606 43.515799 
L 647.290189 42.997209 
L 644.755771 42.686054 
L 642.221353 42.582336 
" style="fill:none;stroke:#000000;stroke-linecap:square;stroke-width:3.0;"/>
   </g>
   <g id="line2d_15">
    <path clip-path="url(#p2a61fe4a53)" d="M 541.529624 167.208445 
L 546.564211 157.163833 
L 549.920602 149.638955 
L 554.955188 137.21084 
L 563.346165 116.130004 
L 566.702556 108.202909 
L 570.058947 100.975453 
L 571.737143 97.728778 
L 573.415338 94.781132 
L 575.093534 92.149012 
L 576.771729 89.845493 
L 578.449925 87.885666 
L 580.12812 86.31405 
L 581.806316 85.1861 
L 583.484511 84.550105 
L 585.162707 84.452347 
L 586.840902 84.910175 
L 588.519098 85.931531 
L 590.197293 87.531141 
L 591.875489 89.748287 
L 593.553684 92.622205 
L 595.23188 96.208963 
L 596.910075 100.558915 
L 598.588271 105.695718 
L 601.944662 117.624636 
L 603.622857 122.92172 
L 605.301053 126.784807 
L 606.979248 128.480878 
L 608.657444 127.272595 
L 610.335639 123.770055 
L 612.013835 118.5748 
L 613.69203 112.285125 
L 618.726617 92.370068 
L 622.083008 80.088786 
L 625.439398 68.964167 
L 627.117594 63.944285 
L 628.795789 59.354715 
L 630.473985 55.238301 
L 632.15218 51.634443 
L 633.830376 48.579253 
L 635.508571 46.111518 
L 637.186767 44.272333 
L 638.864962 43.103021 
L 640.543158 42.652253 
L 642.221353 42.582336 
L 643.899549 42.685818 
L 645.577744 42.933547 
L 647.25594 43.330726 
L 648.934135 43.923269 
L 650.612331 44.695072 
L 652.290526 45.640957 
L 653.968722 46.771274 
L 655.646917 48.093497 
L 657.325113 49.616861 
L 659.003308 51.344465 
L 660.681504 53.272038 
L 662.359699 55.37932 
L 665.71609 60.136977 
L 669.072481 65.623787 
L 672.428872 71.816149 
L 675.785263 78.692995 
L 679.141654 86.196592 
L 682.498045 94.203606 
L 685.854436 102.69681 
L 690.889023 116.212994 
L 695.923609 130.323303 
L 705.992782 159.447227 
L 716.061955 188.476229 
L 722.774737 207.341514 
L 729.487519 225.544916 
L 734.522105 238.650597 
L 739.556692 251.10912 
L 742.913083 258.904263 
L 746.269474 266.19114 
L 749.625865 272.90077 
L 752.982256 278.856045 
L 754.660451 281.473781 
L 756.338647 283.844701 
L 758.016842 285.949897 
L 759.695038 287.774442 
L 761.373233 289.293018 
L 763.051429 290.461861 
L 764.729624 291.25298 
L 766.40782 291.609581 
L 768.086015 291.481067 
L 769.764211 290.831457 
L 771.442406 289.62645 
L 773.120602 287.833255 
L 774.798797 285.416588 
L 776.476992 282.33978 
L 778.155188 278.571876 
L 779.833383 274.069786 
L 781.511579 268.801532 
L 783.189774 262.715446 
L 784.86797 255.766957 
L 786.546165 247.924497 
L 788.224361 239.153342 
L 789.902556 229.406708 
L 791.580752 218.636288 
L 793.258947 206.778113 
L 794.937143 193.771994 
L 796.615338 179.583751 
L 798.293534 164.174863 
L 799.971729 147.491724 
L 801.649925 129.473033 
L 803.32812 110.041799 
L 805.006316 89.133198 
L 806.684511 66.699294 
L 808.362707 42.685388 
L 808.362707 42.685388 
" style="fill:none;stroke:#ff0000;stroke-linecap:square;stroke-width:2.0;"/>
   </g>
   <g id="line2d_16">
    <path clip-path="url(#p2a61fe4a53)" d="M 966.113083 84.544789 
L 967.346043 82.852501 
L 968.579003 81.195105 
L 969.811963 79.572602 
L 971.044923 77.984991 
L 972.277882 76.432273 
L 973.510842 74.914448 
L 974.743802 73.431515 
L 975.976762 71.983474 
L 977.209722 70.570326 
L 978.442682 69.192071 
L 979.675642 67.848708 
L 980.908602 66.540238 
L 982.141562 65.26666 
L 983.374522 64.027975 
L 984.607482 62.824182 
L 985.840442 61.655282 
L 987.073402 60.521274 
L 988.306362 59.422159 
L 989.539322 58.357937 
L 990.772282 57.328607 
L 992.005242 56.334169 
L 993.238202 55.374624 
L 994.471162 54.449972 
L 995.704122 53.560212 
L 996.937081 52.705345 
L 998.170041 51.88537 
L 999.403001 51.100288 
L 1000.635961 50.350099 
L 1001.868921 49.634801 
L 1003.101881 48.954397 
L 1004.334841 48.308885 
L 1005.567801 47.698265 
L 1006.800761 47.122538 
L 1008.033721 46.581704 
L 1009.266681 46.075762 
L 1010.499641 45.604713 
L 1011.732601 45.168556 
L 1012.965561 44.767292 
L 1014.198521 44.40092 
L 1015.431481 44.069441 
L 1016.664441 43.772855 
L 1017.897401 43.51116 
L 1019.130361 43.284359 
L 1020.363321 43.09245 
L 1021.59628 42.935434 
L 1022.82924 42.81331 
L 1024.0622 42.726078 
L 1025.29516 42.673739 
L 1026.52812 42.656293 
" style="fill:none;stroke:#000000;stroke-linecap:square;stroke-width:3.0;"/>
   </g>
   <g id="line2d_17">
    <path clip-path="url(#p2a61fe4a53)" d="M 902.341654 291.688972 
L 903.643112 283.320382 
L 904.94457 275.12434 
L 906.246027 267.100846 
L 907.547485 259.2499 
L 908.848943 251.571502 
L 910.1504 244.065653 
L 911.451858 236.732352 
L 912.753316 229.5716 
L 914.054774 222.583395 
L 915.356231 215.767739 
L 916.657689 209.124631 
L 917.959147 202.654071 
L 919.260605 196.35606 
L 920.562062 190.230597 
L 921.86352 184.277682 
L 923.164978 178.497315 
L 924.466435 172.889497 
L 925.767893 167.454227 
L 927.069351 162.191505 
L 928.370809 157.101331 
L 929.672266 152.183706 
L 930.973724 147.438629 
L 932.275182 142.8661 
L 933.57664 138.466119 
L 934.878097 134.238687 
L 936.179555 130.183803 
L 937.481013 126.301467 
L 938.78247 122.59168 
L 940.083928 119.05444 
L 941.385386 115.689749 
L 942.686844 112.497607 
L 943.988301 109.478012 
L 945.289759 106.630966 
L 946.591217 103.956468 
L 947.892675 101.454518 
L 949.194132 99.125117 
L 950.49559 96.968263 
L 951.797048 94.983959 
L 953.098505 93.172202 
L 954.399963 91.532993 
L 955.701421 90.066333 
L 957.002879 88.772221 
L 958.304336 87.650658 
L 959.605794 86.701642 
L 960.907252 85.925175 
L 962.20871 85.321256 
L 963.510167 84.889885 
L 964.811625 84.631063 
L 966.113083 84.544789 
" style="fill:none;stroke:#000000;stroke-linecap:square;stroke-width:3.0;"/>
   </g>
   <g id="line2d_18">
    <path clip-path="url(#p2a61fe4a53)" d="M 986.251429 128.475958 
L 985.840442 126.701146 
L 985.429455 124.962928 
L 985.018469 123.261305 
L 984.607482 121.596275 
L 984.196495 119.967839 
L 983.785509 118.375997 
L 983.374522 116.82075 
L 982.963535 115.302096 
L 982.552549 113.820037 
L 982.141562 112.374572 
L 981.730575 110.9657 
L 981.319589 109.593423 
L 980.908602 108.25774 
L 980.497615 106.958651 
L 980.086629 105.696156 
L 979.675642 104.470255 
L 979.264656 103.280948 
L 978.853669 102.128235 
L 978.442682 101.012116 
L 978.031696 99.932591 
L 977.620709 98.88966 
L 977.209722 97.883324 
L 976.798736 96.913581 
L 976.387749 95.980433 
L 975.976762 95.083878 
L 975.565776 94.223918 
L 975.154789 93.400551 
L 974.743802 92.613779 
L 974.332816 91.863601 
L 973.921829 91.150017 
L 973.510842 90.473027 
L 973.099856 89.832631 
L 972.688869 89.228829 
L 972.277882 88.661621 
L 971.866896 88.131007 
L 971.455909 87.636987 
L 971.044923 87.179561 
L 970.633936 86.75873 
L 970.222949 86.374492 
L 969.811963 86.026848 
L 969.400976 85.715799 
L 968.989989 85.441343 
L 968.579003 85.203482 
L 968.168016 85.002215 
L 967.757029 84.837541 
L 967.346043 84.709462 
L 966.935056 84.617977 
L 966.524069 84.563086 
L 966.113083 84.544789 
" style="fill:none;stroke:#000000;stroke-linecap:square;stroke-width:3.0;"/>
   </g>
   <g id="line2d_19">
    <path clip-path="url(#p2a61fe4a53)" d="M 1127.21985 167.186772 
L 1125.164916 162.155761 
L 1123.109983 157.228483 
L 1121.05505 152.404937 
L 1119.000117 147.685123 
L 1116.945183 143.069041 
L 1114.89025 138.556691 
L 1112.835317 134.148074 
L 1110.780384 129.843188 
L 1108.72545 125.642035 
L 1106.670517 121.544614 
L 1104.615584 117.550925 
L 1102.560651 113.660969 
L 1100.505717 109.874744 
L 1098.450784 106.192252 
L 1096.395851 102.613492 
L 1094.340918 99.138464 
L 1092.285984 95.767168 
L 1090.231051 92.499604 
L 1088.176118 89.335773 
L 1086.121185 86.275674 
L 1084.066251 83.319307 
L 1082.011318 80.466672 
L 1079.956385 77.717769 
L 1077.901452 75.072599 
L 1075.846518 72.53116 
L 1073.791585 70.093454 
L 1071.736652 67.75948 
L 1069.681719 65.529238 
L 1067.626785 63.402729 
L 1065.571852 61.379951 
L 1063.516919 59.460906 
L 1061.461986 57.645593 
L 1059.407052 55.934012 
L 1057.352119 54.326163 
L 1055.297186 52.822047 
L 1053.242253 51.421662 
L 1051.187319 50.12501 
L 1049.132386 48.93209 
L 1047.077453 47.842902 
L 1045.02252 46.857446 
L 1042.967586 45.975723 
L 1040.912653 45.197732 
L 1038.85772 44.523472 
L 1036.802787 43.952945 
L 1034.747853 43.486151 
L 1032.69292 43.123088 
L 1030.637987 42.863758 
L 1028.583054 42.708159 
L 1026.52812 42.656293 
" style="fill:none;stroke:#000000;stroke-linecap:square;stroke-width:3.0;"/>
   </g>
   <g id="line2d_20">
    <path clip-path="url(#p2a61fe4a53)" d="M 860.386767 42.708169 
L 862.064962 66.710915 
L 863.743158 89.130684 
L 865.421353 110.029109 
L 867.099549 129.462954 
L 868.777744 147.497944 
L 870.45594 164.185316 
L 872.134135 179.586301 
L 873.812331 193.757927 
L 875.490526 206.751574 
L 877.168722 218.612315 
L 878.846917 229.393464 
L 880.525113 239.141363 
L 882.203308 247.904635 
L 883.881504 255.73359 
L 885.559699 262.671144 
L 887.237895 268.757592 
L 888.91609 274.030466 
L 890.594286 278.530961 
L 892.272481 282.305314 
L 893.950677 285.388744 
L 895.628872 287.821774 
L 897.307068 289.636654 
L 898.985263 290.864934 
L 900.663459 291.54091 
L 902.341654 291.688972 
L 904.01985 291.292174 
L 905.698045 290.272461 
L 907.376241 288.52875 
L 909.054436 286.096553 
L 910.732632 283.01492 
L 912.410827 279.320009 
L 914.089023 275.041941 
L 915.767218 270.228819 
L 917.445414 264.924037 
L 919.123609 259.175447 
L 922.48 246.492364 
L 925.836391 232.425518 
L 929.192782 217.250378 
L 934.227368 193.231333 
L 942.618346 152.718589 
L 945.974737 137.372872 
L 949.331128 123.199769 
L 952.687519 110.598029 
L 954.365714 105.003604 
L 956.04391 99.952677 
L 957.722105 95.506941 
L 959.400301 91.735947 
L 961.078496 88.696516 
L 962.756692 86.45106 
L 964.434887 85.049947 
L 966.113083 84.544789 
L 967.791278 84.988506 
L 969.469474 86.346981 
L 971.147669 88.58916 
L 972.825865 91.680996 
L 974.50406 95.581655 
L 976.182256 100.245791 
L 977.860451 105.634016 
L 981.216842 117.741138 
L 982.895038 123.027449 
L 984.573233 126.847086 
L 986.251429 128.475958 
L 987.929624 127.187323 
L 989.60782 123.617386 
L 991.286015 118.397812 
L 994.642406 105.565379 
L 997.998797 93.135451 
L 1001.355188 81.813205 
L 1004.711579 71.749069 
L 1006.389774 67.220261 
L 1008.06797 63.034148 
L 1009.746165 59.197134 
L 1011.424361 55.725348 
L 1013.102556 52.640227 
L 1014.780752 49.963388 
L 1016.458947 47.70143 
L 1018.137143 45.857686 
L 1019.815338 44.438751 
L 1021.493534 43.454787 
L 1023.171729 42.925211 
L 1024.849925 42.697459 
L 1028.206316 42.691325 
L 1029.884511 42.784433 
L 1031.562707 43.003151 
L 1033.240902 43.344755 
L 1034.919098 43.80631 
L 1038.275489 45.084255 
L 1041.63188 46.78367 
L 1044.988271 48.848972 
L 1048.344662 51.273899 
L 1051.701053 54.014386 
L 1055.057444 57.034411 
L 1058.413835 60.315872 
L 1063.448421 65.620582 
L 1068.483008 71.401732 
L 1073.517594 77.578255 
L 1078.55218 84.108676 
L 1083.586767 91.072061 
L 1088.621353 98.390586 
L 1093.65594 106.119417 
L 1098.690526 114.300976 
L 1103.725113 122.843809 
L 1108.759699 131.809008 
L 1115.472481 144.294099 
L 1122.185263 157.240147 
L 1127.21985 167.186772 
L 1127.21985 167.186772 
" style="fill:none;stroke:#00bfbf;stroke-linecap:square;stroke-width:2.0;"/>
   </g>
   <g id="patch_3">
    <path d="M 29.68 23.14175 
L 1145.68 23.14175 
" style="fill:none;stroke:#000000;stroke-linecap:square;stroke-linejoin:miter;"/>
   </g>
   <g id="patch_4">
    <path d="M 1145.68 311.14175 
L 1145.68 23.14175 
" style="fill:none;stroke:#000000;stroke-linecap:square;stroke-linejoin:miter;"/>
   </g>
   <g id="patch_5">
    <path d="M 29.68 311.14175 
L 1145.68 311.14175 
" style="fill:none;stroke:#000000;stroke-linecap:square;stroke-linejoin:miter;"/>
   </g>
   <g id="patch_6">
    <path d="M 29.68 311.14175 
L 29.68 23.14175 
" style="fill:none;stroke:#000000;stroke-linecap:square;stroke-linejoin:miter;"/>
   </g>
   <g id="matplotlib.axis_1"/>
   <g id="matplotlib.axis_2">
    <g id="ytick_1">
     <g id="line2d_21">
      <path clip-path="url(#p2a61fe4a53)" d="M 29.68 291.609581 
L 1145.68 291.609581 
" style="fill:none;stroke:#000000;stroke-dasharray:1.000000,3.000000;stroke-dashoffset:0.0;stroke-width:0.5;"/>
     </g>
     <g id="line2d_22">
      <defs>
       <path d="M 0 0 
L 4 0 
" id="ma808fff30c" style="stroke:#000000;stroke-width:0.5;"/>
      </defs>
      <g>
       <use style="stroke:#000000;stroke-width:0.5;" x="29.68" xlink:href="#ma808fff30c" y="291.609581137"/>
      </g>
     </g>
     <g id="line2d_23">
      <defs>
       <path d="M 0 0 
L -4 0 
" id="md832183745" style="stroke:#000000;stroke-width:0.5;"/>
      </defs>
      <g>
       <use style="stroke:#000000;stroke-width:0.5;" x="1145.68" xlink:href="#md832183745" y="291.609581137"/>
      </g>
     </g>
     <g id="text_1">
      <!-- A -->
      <defs>
       <path d="M 34.1875 63.1875 
L 20.796875 26.90625 
L 47.609375 26.90625 
z
M 28.609375 72.90625 
L 39.796875 72.90625 
L 67.578125 0 
L 57.328125 0 
L 50.6875 18.703125 
L 17.828125 18.703125 
L 11.1875 0 
L 0.78125 0 
z
" id="BitstreamVeraSans-Roman-41"/>
      </defs>
      <g transform="translate(9.2625 298.232081137)scale(0.24 -0.24)">
       <use xlink:href="#BitstreamVeraSans-Roman-41"/>
      </g>
     </g>
    </g>
    <g id="ytick_2">
     <g id="line2d_24">
      <path clip-path="url(#p2a61fe4a53)" d="M 29.68 167.208445 
L 1145.68 167.208445 
" style="fill:none;stroke:#000000;stroke-dasharray:1.000000,3.000000;stroke-dashoffset:0.0;stroke-width:0.5;"/>
     </g>
     <g id="line2d_25">
      <g>
       <use style="stroke:#000000;stroke-width:0.5;" x="29.68" xlink:href="#ma808fff30c" y="167.208444985"/>
      </g>
     </g>
     <g id="line2d_26">
      <g>
       <use style="stroke:#000000;stroke-width:0.5;" x="1145.68" xlink:href="#md832183745" y="167.208444985"/>
      </g>
     </g>
     <g id="text_2">
      <!-- B -->
      <defs>
       <path d="M 19.671875 34.8125 
L 19.671875 8.109375 
L 35.5 8.109375 
Q 43.453125 8.109375 47.28125 11.40625 
Q 51.125 14.703125 51.125 21.484375 
Q 51.125 28.328125 47.28125 31.5625 
Q 43.453125 34.8125 35.5 34.8125 
z
M 19.671875 64.796875 
L 19.671875 42.828125 
L 34.28125 42.828125 
Q 41.5 42.828125 45.03125 45.53125 
Q 48.578125 48.25 48.578125 53.8125 
Q 48.578125 59.328125 45.03125 62.0625 
Q 41.5 64.796875 34.28125 64.796875 
z
M 9.8125 72.90625 
L 35.015625 72.90625 
Q 46.296875 72.90625 52.390625 68.21875 
Q 58.5 63.53125 58.5 54.890625 
Q 58.5 48.1875 55.375 44.234375 
Q 52.25 40.28125 46.1875 39.3125 
Q 53.46875 37.75 57.5 32.78125 
Q 61.53125 27.828125 61.53125 20.40625 
Q 61.53125 10.640625 54.890625 5.3125 
Q 48.25 0 35.984375 0 
L 9.8125 0 
z
" id="BitstreamVeraSans-Roman-42"/>
      </defs>
      <g transform="translate(9.21375 173.830944985)scale(0.24 -0.24)">
       <use xlink:href="#BitstreamVeraSans-Roman-42"/>
      </g>
     </g>
    </g>
    <g id="ytick_3">
     <g id="line2d_27">
      <path clip-path="url(#p2a61fe4a53)" d="M 29.68 128.480878 
L 1145.68 128.480878 
" style="fill:none;stroke:#000000;stroke-dasharray:1.000000,3.000000;stroke-dashoffset:0.0;stroke-width:0.5;"/>
     </g>
     <g id="line2d_28">
      <g>
       <use style="stroke:#000000;stroke-width:0.5;" x="29.68" xlink:href="#ma808fff30c" y="128.480877773"/>
      </g>
     </g>
     <g id="line2d_29">
      <g>
       <use style="stroke:#000000;stroke-width:0.5;" x="1145.68" xlink:href="#md832183745" y="128.480877773"/>
      </g>
     </g>
     <g id="text_3">
      <!-- C -->
      <defs>
       <path d="M 64.40625 67.28125 
L 64.40625 56.890625 
Q 59.421875 61.53125 53.78125 63.8125 
Q 48.140625 66.109375 41.796875 66.109375 
Q 29.296875 66.109375 22.65625 58.46875 
Q 16.015625 50.828125 16.015625 36.375 
Q 16.015625 21.96875 22.65625 14.328125 
Q 29.296875 6.6875 41.796875 6.6875 
Q 48.140625 6.6875 53.78125 8.984375 
Q 59.421875 11.28125 64.40625 15.921875 
L 64.40625 5.609375 
Q 59.234375 2.09375 53.4375 0.328125 
Q 47.65625 -1.421875 41.21875 -1.421875 
Q 24.65625 -1.421875 15.125 8.703125 
Q 5.609375 18.84375 5.609375 36.375 
Q 5.609375 53.953125 15.125 64.078125 
Q 24.65625 74.21875 41.21875 74.21875 
Q 47.75 74.21875 53.53125 72.484375 
Q 59.328125 70.75 64.40625 67.28125 
" id="BitstreamVeraSans-Roman-43"/>
      </defs>
      <g transform="translate(8.92125 135.103377773)scale(0.24 -0.24)">
       <use xlink:href="#BitstreamVeraSans-Roman-43"/>
      </g>
     </g>
    </g>
    <g id="ytick_4">
     <g id="line2d_30">
      <path clip-path="url(#p2a61fe4a53)" d="M 29.68 84.452347 
L 1145.68 84.452347 
" style="fill:none;stroke:#000000;stroke-dasharray:1.000000,3.000000;stroke-dashoffset:0.0;stroke-width:0.5;"/>
     </g>
     <g id="line2d_31">
      <g>
       <use style="stroke:#000000;stroke-width:0.5;" x="29.68" xlink:href="#ma808fff30c" y="84.4523467081"/>
      </g>
     </g>
     <g id="line2d_32">
      <g>
       <use style="stroke:#000000;stroke-width:0.5;" x="1145.68" xlink:href="#md832183745" y="84.4523467081"/>
      </g>
     </g>
     <g id="text_4">
      <!-- D -->
      <defs>
       <path d="M 19.671875 64.796875 
L 19.671875 8.109375 
L 31.59375 8.109375 
Q 46.6875 8.109375 53.6875 14.9375 
Q 60.6875 21.78125 60.6875 36.53125 
Q 60.6875 51.171875 53.6875 57.984375 
Q 46.6875 64.796875 31.59375 64.796875 
z
M 9.8125 72.90625 
L 30.078125 72.90625 
Q 51.265625 72.90625 61.171875 64.09375 
Q 71.09375 55.28125 71.09375 36.53125 
Q 71.09375 17.671875 61.125 8.828125 
Q 51.171875 0 30.078125 0 
L 9.8125 0 
z
" id="BitstreamVeraSans-Roman-44"/>
      </defs>
      <g transform="translate(7.2 91.0748467081)scale(0.24 -0.24)">
       <use xlink:href="#BitstreamVeraSans-Roman-44"/>
      </g>
     </g>
    </g>
    <g id="ytick_5">
     <g id="line2d_33">
      <path clip-path="url(#p2a61fe4a53)" d="M 29.68 42.582336 
L 1145.68 42.582336 
" style="fill:none;stroke:#000000;stroke-dasharray:1.000000,3.000000;stroke-dashoffset:0.0;stroke-width:0.5;"/>
     </g>
     <g id="line2d_34">
      <g>
       <use style="stroke:#000000;stroke-width:0.5;" x="29.68" xlink:href="#ma808fff30c" y="42.5823360027"/>
      </g>
     </g>
     <g id="line2d_35">
      <g>
       <use style="stroke:#000000;stroke-width:0.5;" x="1145.68" xlink:href="#md832183745" y="42.5823360027"/>
      </g>
     </g>
     <g id="text_5">
      <!-- E -->
      <defs>
       <path d="M 9.8125 72.90625 
L 55.90625 72.90625 
L 55.90625 64.59375 
L 19.671875 64.59375 
L 19.671875 43.015625 
L 54.390625 43.015625 
L 54.390625 34.71875 
L 19.671875 34.71875 
L 19.671875 8.296875 
L 56.78125 8.296875 
L 56.78125 0 
L 9.8125 0 
z
" id="BitstreamVeraSans-Roman-45"/>
      </defs>
      <g transform="translate(10.515 49.2048360027)scale(0.24 -0.24)">
       <use xlink:href="#BitstreamVeraSans-Roman-45"/>
      </g>
     </g>
    </g>
   </g>
   <g id="text_6">
    <!-- Merge Trees of Signal Snippets -->
    <defs>
     <path id="BitstreamVeraSans-Roman-20"/>
     <path d="M 9.8125 72.90625 
L 24.515625 72.90625 
L 43.109375 23.296875 
L 61.8125 72.90625 
L 76.515625 72.90625 
L 76.515625 0 
L 66.890625 0 
L 66.890625 64.015625 
L 48.09375 14.015625 
L 38.1875 14.015625 
L 19.390625 64.015625 
L 19.390625 0 
L 9.8125 0 
z
" id="BitstreamVeraSans-Roman-4d"/>
     <path d="M 54.890625 33.015625 
L 54.890625 0 
L 45.90625 0 
L 45.90625 32.71875 
Q 45.90625 40.484375 42.875 44.328125 
Q 39.84375 48.1875 33.796875 48.1875 
Q 26.515625 48.1875 22.3125 43.546875 
Q 18.109375 38.921875 18.109375 30.90625 
L 18.109375 0 
L 9.078125 0 
L 9.078125 54.6875 
L 18.109375 54.6875 
L 18.109375 46.1875 
Q 21.34375 51.125 25.703125 53.5625 
Q 30.078125 56 35.796875 56 
Q 45.21875 56 50.046875 50.171875 
Q 54.890625 44.34375 54.890625 33.015625 
" id="BitstreamVeraSans-Roman-6e"/>
     <path d="M 34.28125 27.484375 
Q 23.390625 27.484375 19.1875 25 
Q 14.984375 22.515625 14.984375 16.5 
Q 14.984375 11.71875 18.140625 8.90625 
Q 21.296875 6.109375 26.703125 6.109375 
Q 34.1875 6.109375 38.703125 11.40625 
Q 43.21875 16.703125 43.21875 25.484375 
L 43.21875 27.484375 
z
M 52.203125 31.203125 
L 52.203125 0 
L 43.21875 0 
L 43.21875 8.296875 
Q 40.140625 3.328125 35.546875 0.953125 
Q 30.953125 -1.421875 24.3125 -1.421875 
Q 15.921875 -1.421875 10.953125 3.296875 
Q 6 8.015625 6 15.921875 
Q 6 25.140625 12.171875 29.828125 
Q 18.359375 34.515625 30.609375 34.515625 
L 43.21875 34.515625 
L 43.21875 35.40625 
Q 43.21875 41.609375 39.140625 45 
Q 35.0625 48.390625 27.6875 48.390625 
Q 23 48.390625 18.546875 47.265625 
Q 14.109375 46.140625 10.015625 43.890625 
L 10.015625 52.203125 
Q 14.9375 54.109375 19.578125 55.046875 
Q 24.21875 56 28.609375 56 
Q 40.484375 56 46.34375 49.84375 
Q 52.203125 43.703125 52.203125 31.203125 
" id="BitstreamVeraSans-Roman-61"/>
     <path d="M 30.609375 48.390625 
Q 23.390625 48.390625 19.1875 42.75 
Q 14.984375 37.109375 14.984375 27.296875 
Q 14.984375 17.484375 19.15625 11.84375 
Q 23.34375 6.203125 30.609375 6.203125 
Q 37.796875 6.203125 41.984375 11.859375 
Q 46.1875 17.53125 46.1875 27.296875 
Q 46.1875 37.015625 41.984375 42.703125 
Q 37.796875 48.390625 30.609375 48.390625 
M 30.609375 56 
Q 42.328125 56 49.015625 48.375 
Q 55.71875 40.765625 55.71875 27.296875 
Q 55.71875 13.875 49.015625 6.21875 
Q 42.328125 -1.421875 30.609375 -1.421875 
Q 18.84375 -1.421875 12.171875 6.21875 
Q 5.515625 13.875 5.515625 27.296875 
Q 5.515625 40.765625 12.171875 48.375 
Q 18.84375 56 30.609375 56 
" id="BitstreamVeraSans-Roman-6f"/>
     <path d="M 18.3125 70.21875 
L 18.3125 54.6875 
L 36.8125 54.6875 
L 36.8125 47.703125 
L 18.3125 47.703125 
L 18.3125 18.015625 
Q 18.3125 11.328125 20.140625 9.421875 
Q 21.96875 7.515625 27.59375 7.515625 
L 36.8125 7.515625 
L 36.8125 0 
L 27.59375 0 
Q 17.1875 0 13.234375 3.875 
Q 9.28125 7.765625 9.28125 18.015625 
L 9.28125 47.703125 
L 2.6875 47.703125 
L 2.6875 54.6875 
L 9.28125 54.6875 
L 9.28125 70.21875 
z
" id="BitstreamVeraSans-Roman-74"/>
     <path d="M 9.421875 75.984375 
L 18.40625 75.984375 
L 18.40625 0 
L 9.421875 0 
z
" id="BitstreamVeraSans-Roman-6c"/>
     <path d="M 53.515625 70.515625 
L 53.515625 60.890625 
Q 47.90625 63.578125 42.921875 64.890625 
Q 37.9375 66.21875 33.296875 66.21875 
Q 25.25 66.21875 20.875 63.09375 
Q 16.5 59.96875 16.5 54.203125 
Q 16.5 49.359375 19.40625 46.890625 
Q 22.3125 44.4375 30.421875 42.921875 
L 36.375 41.703125 
Q 47.40625 39.59375 52.65625 34.296875 
Q 57.90625 29 57.90625 20.125 
Q 57.90625 9.515625 50.796875 4.046875 
Q 43.703125 -1.421875 29.984375 -1.421875 
Q 24.8125 -1.421875 18.96875 -0.25 
Q 13.140625 0.921875 6.890625 3.21875 
L 6.890625 13.375 
Q 12.890625 10.015625 18.65625 8.296875 
Q 24.421875 6.59375 29.984375 6.59375 
Q 38.421875 6.59375 43.015625 9.90625 
Q 47.609375 13.234375 47.609375 19.390625 
Q 47.609375 24.75 44.3125 27.78125 
Q 41.015625 30.8125 33.5 32.328125 
L 27.484375 33.5 
Q 16.453125 35.6875 11.515625 40.375 
Q 6.59375 45.0625 6.59375 53.421875 
Q 6.59375 63.09375 13.40625 68.65625 
Q 20.21875 74.21875 32.171875 74.21875 
Q 37.3125 74.21875 42.625 73.28125 
Q 47.953125 72.359375 53.515625 70.515625 
" id="BitstreamVeraSans-Roman-53"/>
     <path d="M -0.296875 72.90625 
L 61.375 72.90625 
L 61.375 64.59375 
L 35.5 64.59375 
L 35.5 0 
L 25.59375 0 
L 25.59375 64.59375 
L -0.296875 64.59375 
z
" id="BitstreamVeraSans-Roman-54"/>
     <path d="M 56.203125 29.59375 
L 56.203125 25.203125 
L 14.890625 25.203125 
Q 15.484375 15.921875 20.484375 11.0625 
Q 25.484375 6.203125 34.421875 6.203125 
Q 39.59375 6.203125 44.453125 7.46875 
Q 49.3125 8.734375 54.109375 11.28125 
L 54.109375 2.78125 
Q 49.265625 0.734375 44.1875 -0.34375 
Q 39.109375 -1.421875 33.890625 -1.421875 
Q 20.796875 -1.421875 13.15625 6.1875 
Q 5.515625 13.8125 5.515625 26.8125 
Q 5.515625 40.234375 12.765625 48.109375 
Q 20.015625 56 32.328125 56 
Q 43.359375 56 49.78125 48.890625 
Q 56.203125 41.796875 56.203125 29.59375 
M 47.21875 32.234375 
Q 47.125 39.59375 43.09375 43.984375 
Q 39.0625 48.390625 32.421875 48.390625 
Q 24.90625 48.390625 20.390625 44.140625 
Q 15.875 39.890625 15.1875 32.171875 
z
" id="BitstreamVeraSans-Roman-65"/>
     <path d="M 9.421875 54.6875 
L 18.40625 54.6875 
L 18.40625 0 
L 9.421875 0 
z
M 9.421875 75.984375 
L 18.40625 75.984375 
L 18.40625 64.59375 
L 9.421875 64.59375 
z
" id="BitstreamVeraSans-Roman-69"/>
     <path d="M 45.40625 27.984375 
Q 45.40625 37.75 41.375 43.109375 
Q 37.359375 48.484375 30.078125 48.484375 
Q 22.859375 48.484375 18.828125 43.109375 
Q 14.796875 37.75 14.796875 27.984375 
Q 14.796875 18.265625 18.828125 12.890625 
Q 22.859375 7.515625 30.078125 7.515625 
Q 37.359375 7.515625 41.375 12.890625 
Q 45.40625 18.265625 45.40625 27.984375 
M 54.390625 6.78125 
Q 54.390625 -7.171875 48.1875 -13.984375 
Q 42 -20.796875 29.203125 -20.796875 
Q 24.46875 -20.796875 20.265625 -20.09375 
Q 16.0625 -19.390625 12.109375 -17.921875 
L 12.109375 -9.1875 
Q 16.0625 -11.328125 19.921875 -12.34375 
Q 23.78125 -13.375 27.78125 -13.375 
Q 36.625 -13.375 41.015625 -8.765625 
Q 45.40625 -4.15625 45.40625 5.171875 
L 45.40625 9.625 
Q 42.625 4.78125 38.28125 2.390625 
Q 33.9375 0 27.875 0 
Q 17.828125 0 11.671875 7.65625 
Q 5.515625 15.328125 5.515625 27.984375 
Q 5.515625 40.671875 11.671875 48.328125 
Q 17.828125 56 27.875 56 
Q 33.9375 56 38.28125 53.609375 
Q 42.625 51.21875 45.40625 46.390625 
L 45.40625 54.6875 
L 54.390625 54.6875 
z
" id="BitstreamVeraSans-Roman-67"/>
     <path d="M 37.109375 75.984375 
L 37.109375 68.5 
L 28.515625 68.5 
Q 23.6875 68.5 21.796875 66.546875 
Q 19.921875 64.59375 19.921875 59.515625 
L 19.921875 54.6875 
L 34.71875 54.6875 
L 34.71875 47.703125 
L 19.921875 47.703125 
L 19.921875 0 
L 10.890625 0 
L 10.890625 47.703125 
L 2.296875 47.703125 
L 2.296875 54.6875 
L 10.890625 54.6875 
L 10.890625 58.5 
Q 10.890625 67.625 15.140625 71.796875 
Q 19.390625 75.984375 28.609375 75.984375 
z
" id="BitstreamVeraSans-Roman-66"/>
     <path d="M 41.109375 46.296875 
Q 39.59375 47.171875 37.8125 47.578125 
Q 36.03125 48 33.890625 48 
Q 26.265625 48 22.1875 43.046875 
Q 18.109375 38.09375 18.109375 28.8125 
L 18.109375 0 
L 9.078125 0 
L 9.078125 54.6875 
L 18.109375 54.6875 
L 18.109375 46.1875 
Q 20.953125 51.171875 25.484375 53.578125 
Q 30.03125 56 36.53125 56 
Q 37.453125 56 38.578125 55.875 
Q 39.703125 55.765625 41.0625 55.515625 
z
" id="BitstreamVeraSans-Roman-72"/>
     <path d="M 44.28125 53.078125 
L 44.28125 44.578125 
Q 40.484375 46.53125 36.375 47.5 
Q 32.28125 48.484375 27.875 48.484375 
Q 21.1875 48.484375 17.84375 46.4375 
Q 14.5 44.390625 14.5 40.28125 
Q 14.5 37.15625 16.890625 35.375 
Q 19.28125 33.59375 26.515625 31.984375 
L 29.59375 31.296875 
Q 39.15625 29.25 43.1875 25.515625 
Q 47.21875 21.78125 47.21875 15.09375 
Q 47.21875 7.46875 41.1875 3.015625 
Q 35.15625 -1.421875 24.609375 -1.421875 
Q 20.21875 -1.421875 15.453125 -0.5625 
Q 10.6875 0.296875 5.421875 2 
L 5.421875 11.28125 
Q 10.40625 8.6875 15.234375 7.390625 
Q 20.0625 6.109375 24.8125 6.109375 
Q 31.15625 6.109375 34.5625 8.28125 
Q 37.984375 10.453125 37.984375 14.40625 
Q 37.984375 18.0625 35.515625 20.015625 
Q 33.0625 21.96875 24.703125 23.78125 
L 21.578125 24.515625 
Q 13.234375 26.265625 9.515625 29.90625 
Q 5.8125 33.546875 5.8125 39.890625 
Q 5.8125 47.609375 11.28125 51.796875 
Q 16.75 56 26.8125 56 
Q 31.78125 56 36.171875 55.265625 
Q 40.578125 54.546875 44.28125 53.078125 
" id="BitstreamVeraSans-Roman-73"/>
     <path d="M 18.109375 8.203125 
L 18.109375 -20.796875 
L 9.078125 -20.796875 
L 9.078125 54.6875 
L 18.109375 54.6875 
L 18.109375 46.390625 
Q 20.953125 51.265625 25.265625 53.625 
Q 29.59375 56 35.59375 56 
Q 45.5625 56 51.78125 48.09375 
Q 58.015625 40.1875 58.015625 27.296875 
Q 58.015625 14.40625 51.78125 6.484375 
Q 45.5625 -1.421875 35.59375 -1.421875 
Q 29.59375 -1.421875 25.265625 0.953125 
Q 20.953125 3.328125 18.109375 8.203125 
M 48.6875 27.296875 
Q 48.6875 37.203125 44.609375 42.84375 
Q 40.53125 48.484375 33.40625 48.484375 
Q 26.265625 48.484375 22.1875 42.84375 
Q 18.109375 37.203125 18.109375 27.296875 
Q 18.109375 17.390625 22.1875 11.75 
Q 26.265625 6.109375 33.40625 6.109375 
Q 40.53125 6.109375 44.609375 11.75 
Q 48.6875 17.390625 48.6875 27.296875 
" id="BitstreamVeraSans-Roman-70"/>
    </defs>
    <g transform="translate(475.63675 18.14175)scale(0.144 -0.144)">
     <use xlink:href="#BitstreamVeraSans-Roman-4d"/>
     <use x="86.279296875" xlink:href="#BitstreamVeraSans-Roman-65"/>
     <use x="147.802734375" xlink:href="#BitstreamVeraSans-Roman-72"/>
     <use x="188.900390625" xlink:href="#BitstreamVeraSans-Roman-67"/>
     <use x="252.376953125" xlink:href="#BitstreamVeraSans-Roman-65"/>
     <use x="313.900390625" xlink:href="#BitstreamVeraSans-Roman-20"/>
     <use x="345.6875" xlink:href="#BitstreamVeraSans-Roman-54"/>
     <use x="406.552734375" xlink:href="#BitstreamVeraSans-Roman-72"/>
     <use x="447.634765625" xlink:href="#BitstreamVeraSans-Roman-65"/>
     <use x="509.158203125" xlink:href="#BitstreamVeraSans-Roman-65"/>
     <use x="570.681640625" xlink:href="#BitstreamVeraSans-Roman-73"/>
     <use x="622.78125" xlink:href="#BitstreamVeraSans-Roman-20"/>
     <use x="654.568359375" xlink:href="#BitstreamVeraSans-Roman-6f"/>
     <use x="715.75" xlink:href="#BitstreamVeraSans-Roman-66"/>
     <use x="750.955078125" xlink:href="#BitstreamVeraSans-Roman-20"/>
     <use x="782.7421875" xlink:href="#BitstreamVeraSans-Roman-53"/>
     <use x="846.21875" xlink:href="#BitstreamVeraSans-Roman-69"/>
     <use x="874.001953125" xlink:href="#BitstreamVeraSans-Roman-67"/>
     <use x="937.478515625" xlink:href="#BitstreamVeraSans-Roman-6e"/>
     <use x="1000.85742188" xlink:href="#BitstreamVeraSans-Roman-61"/>
     <use x="1062.13671875" xlink:href="#BitstreamVeraSans-Roman-6c"/>
     <use x="1089.91992188" xlink:href="#BitstreamVeraSans-Roman-20"/>
     <use x="1121.70703125" xlink:href="#BitstreamVeraSans-Roman-53"/>
     <use x="1185.18359375" xlink:href="#BitstreamVeraSans-Roman-6e"/>
     <use x="1248.5625" xlink:href="#BitstreamVeraSans-Roman-69"/>
     <use x="1276.34570312" xlink:href="#BitstreamVeraSans-Roman-70"/>
     <use x="1339.82226562" xlink:href="#BitstreamVeraSans-Roman-70"/>
     <use x="1403.29882812" xlink:href="#BitstreamVeraSans-Roman-65"/>
     <use x="1464.82226562" xlink:href="#BitstreamVeraSans-Roman-74"/>
     <use x="1504.03125" xlink:href="#BitstreamVeraSans-Roman-73"/>
    </g>
   </g>
  </g>
 </g>
 <defs>
  <clipPath id="p2a61fe4a53">
   <rect height="288.0" width="1116.0" x="29.68" y="23.14175"/>
  </clipPath>
 </defs>
</svg>
